# xmcd CD database file
#
# Track frame offsets:
#	150
#	21130
#	40935
#
# Disc length: 774 seconds
#
# Revision: 0
# Processed by: cddbd v1.5.1PL0 Copyright (c) Steve Scherf et al.
# Submitted via: CDex 1.51
#
DISCID=1b030403
DTITLE=Nokko - 昼の月
DYEAR=1999
DGENRE=Pop
TTITLE0=昼の月
TTITLE1=サニーサイド
TTITLE2=目ポタ
EXTD=YEAR: 1999
EXTT0=
EXTT1=
EXTT2=
PLAYORDER=
